<?xml version="1.0" standalone="no"?>
<!DOCTYPE svg PUBLIC "-//W3C//DTD SVG 20010904//EN"
 "http://www.w3.org/TR/2001/REC-SVG-20010904/DTD/svg10.dtd">
<svg version="1.0" xmlns="http://www.w3.org/2000/svg"
 width="48.000000pt" height="48.000000pt" viewBox="0 0 48.000000 48.000000"
 preserveAspectRatio="xMidYMid meet">

<g transform="translate(0.000000,48.000000) scale(0.100000,-0.100000)"
fill="#000000" stroke="none">
<path d="M224 436 c-3 -8 -25 -21 -48 -30 -51 -20 -79 -47 -102 -101 -9 -22
-23 -45 -33 -52 -15 -12 -15 -14 0 -26 10 -7 24 -30 33 -52 23 -53 43 -74 96
-98 25 -11 50 -27 57 -36 10 -15 13 -14 30 2 10 10 38 28 63 40 43 21 90 75
90 104 0 19 -38 -1 -63 -34 -10 -13 -32 -30 -49 -39 -28 -14 -31 -14 -44 3
-13 17 -15 17 -27 2 -11 -15 -17 -15 -42 -4 -57 24 -95 90 -66 112 15 12 15
14 0 26 -31 24 13 93 74 116 22 9 27 8 27 -4 0 -8 9 -15 20 -15 11 0 20 7 20
15 0 8 2 15 5 15 16 0 65 -32 82 -53 25 -33 63 -53 63 -34 0 29 -47 83 -90
104 -25 12 -52 29 -61 37 -19 20 -28 20 -35 2z"/>
<path d="M305 278 c4 -13 7 -30 7 -38 0 -8 -3 -25 -7 -37 -4 -14 -3 -23 3 -23
20 0 122 50 122 60 0 10 -102 60 -122 60 -6 0 -7 -9 -3 -22z"/>
</g>
</svg>
