<?xml version="1.0" standalone="no"?>
<!DOCTYPE svg PUBLIC "-//W3C//DTD SVG 20010904//EN"
 "http://www.w3.org/TR/2001/REC-SVG-20010904/DTD/svg10.dtd">
<svg version="1.0" xmlns="http://www.w3.org/2000/svg"
 width="24.000000pt" height="24.000000pt" viewBox="0 0 24.000000 24.000000"
 preserveAspectRatio="xMidYMid meet">

<g transform="translate(0.000000,24.000000) scale(0.100000,-0.100000)"
fill="#000000" stroke="none">
<path d="M66 197 c-42 -23 -58 -47 -32 -47 8 0 31 9 50 21 l36 21 36 -21 c39
-24 68 -27 62 -8 -5 15 -77 57 -98 57 -8 0 -33 -10 -54 -23z"/>
<path d="M90 70 c0 -38 2 -40 30 -40 28 0 30 2 30 40 0 38 -2 40 -30 40 -28 0
-30 -2 -30 -40z"/>
</g>
</svg>
